# xmcd
# Copyright (C) 1995-1998 Ti Kan
#
# Track frame offsets:
#       150
#       10250
#       23445
#       34790
#       47070
#       59502
#       68430
#       80650
#       87755
#       102477
#       114500
#       127060
#       144640
#       155837
#
# Disc length: 2235 seconds
#
# Revision: 0
# Processed by: cddbd v1.5.2PL0 Copyright (c) Steve Scherf et al.
# Submitted via: CD-Import v1.0
#
DISCID=b908b90e
DTITLE=Turtles - Present The Battle Of The Bands
DYEAR=1968
DGENRE=
TTITLE0=The Battle Of The Bands
TTITLE1=The Last Thing I Remember
TTITLE2=Elenore
TTITLE3=Too Much Heartsick Felling
TTITLE4=Oh, Daddy
TTITLE5=Buzzsaw
TTITLE6=Surfer Dan
TTITLE7=I'm Chief Kamanawanalea (We're The Royal Macadamia Nuts)
TTITLE8=You Showed Me
TTITLE9=Food
TTITLE10=Chicken Little Was Right
TTITLE11=Earth Anthem
TTITLE12=Sound Asleep
TTITLE13=The Story Of Rock And Roll
EXTD=
EXTT0=
EXTT1=
EXTT2=
EXTT3=
EXTT4=
EXTT5=
EXTT6=
EXTT7=
EXTT8=
EXTT9=
EXTT10=
EXTT11=
EXTT12=
EXTT13=
PLAYORDER=
